<?xml version="1.0" standalone="no"?>
<!DOCTYPE svg PUBLIC "-//W3C//DTD SVG 1.1//EN" "http://www.w3.org/Graphics/SVG/1.1/DTD/svg11.dtd"><svg t="1707209714780"
    class="icon" viewBox="0 0 1024 1024" version="1.1" xmlns="http://www.w3.org/2000/svg" p-id="1928" width="28"
    height="48" xmlns:xlink="http://www.w3.org/1999/xlink">
    <path
        d="M512 0a512 512 0 1 0 512 512A512 512 0 0 0 512 0z m0 972.8a460.8 460.8 0 1 1 460.8-460.8 460.8 460.8 0 0 1-460.8 460.8z"
        fill="#3B86E0" p-id="1929"></path>
    <path
        d="M734.72 332.8H289.28l222.72 148.48 222.72-148.48zM256 371.968v282.88l169.728-169.728L256 371.968zM526.08 533.248a25.6 25.6 0 0 1-28.16 0l-28.672-18.944L292.352 691.2h439.296l-176.896-176.896zM768 654.848V371.968l-169.728 113.152L768 654.848z"
        fill="#3B86E0" p-id="1930"></path>
</svg>