<svg t="1726620695166" class="icon" viewBox="0 0 1024 1024" version="1.1" xmlns="http://www.w3.org/2000/svg" p-id="6379" width="200" height="200"><path d="M981.4016 1024H42.5984C21.2992 1024 0 1007.0016 0 981.4016V42.5984C0 21.2992 16.9984 0 42.5984 0h938.5984C1002.7008 0 1024 16.9984 1024 42.5984v938.5984c0 25.8048-16.9984 42.8032-42.5984 42.8032z m0-85.4016V85.4016c0-21.2992-21.2992-42.5984-42.5984-42.5984H85.4016c-21.2992 0-42.5984 21.2992-42.5984 42.5984v853.4016c0 21.2992 21.2992 42.5984 42.5984 42.5984h853.4016c21.2992 0 42.5984-21.2992 42.5984-42.8032zM593.1008 520.6016c0 136.6016-111.0016 247.3984-247.3984 247.3984S98.0992 656.9984 98.0992 520.6016s111.0016-247.3984 247.3984-247.3984c136.6016 4.096 247.6032 115.0976 247.6032 247.3984z m-243.3024-187.8016c-106.7008 0-192.1024 85.4016-192.1024 192.1024s85.4016 192.1024 192.1024 192.1024 192.1024-85.4016 192.1024-192.1024-89.7024-192.1024-192.1024-192.1024z m145.2032 153.6c-16.9984-68.1984-76.8-115.3024-149.2992-115.3024s-132.3008 51.2-149.2992 115.3024v4.3008c0 16.9984 12.9024 29.9008 29.9008 29.9008h4.3008c8.6016 0 12.9024-8.6016 12.9024-16.9984 8.6016-46.8992 46.8992-85.4016 98.0992-85.4016s93.7984 38.2976 98.0992 85.4016c0 8.6016 4.3008 12.6976 12.9024 16.9984h4.3008c16.9984 0 29.9008-12.6976 29.9008-29.9008 12.288 0 12.288-4.3008 8.192-4.3008z m-106.7008 102.4c12.9024 12.6976 16.9984 29.9008 12.9024 46.8992-4.3008 25.6-34.2016 46.8992-59.8016 38.2976-25.6-4.3008-46.8992-34.2016-38.2976-59.8016 4.3008-16.9984 16.9984-29.9008 34.2016-38.2976l55.5008-119.3984-4.5056 132.3008z m465.1008-226.0992c0-12.6976-8.6016-21.2992-21.2992-21.2992h-149.2992c-12.9024 0-21.2992 8.6016-21.2992 21.2992s8.6016 21.2992 21.2992 21.2992h149.2992c12.6976 0 21.2992-8.6016 21.2992-21.2992z m85.1968 170.5984c0-12.6976-8.6016-21.2992-21.2992-21.2992H682.5984c-12.9024 0-21.2992 8.6016-21.2992 21.2992s8.6016 21.2992 21.2992 21.2992h234.7008c12.9024 0 21.2992-8.3968 21.2992-21.2992z m0 170.8032c0-12.6976-8.6016-21.2992-21.2992-21.2992H682.5984c-12.9024 0-21.2992 8.6016-21.2992 21.2992s8.6016 21.2992 21.2992 21.2992h234.7008c12.9024 0 21.2992-8.6016 21.2992-21.2992z" fill="#323232" p-id="6380"></path></svg>