<?xml version="1.0" encoding="UTF-8"?>
<svg xmlns="http://www.w3.org/2000/svg" version="1.1" viewBox="0 0 1968.9 478.8">
  <defs>
    <style>
      .cls-1 {
        stroke: #fff;
        stroke-miterlimit: 10;
        stroke-width: 4px;
      }

      .cls-1, .cls-2 {
        fill: #462de0;
      }

      .cls-3 {
        fill: #ffea00;
        fill-rule: evenodd;
      }

      .cls-4 {
        fill: #fff;
      }

      .cls-5 {
        display: none;
      }
    </style>
  </defs>
  <!-- Generator: Adobe Illustrator 28.7.1, SVG Export Plug-In . SVG Version: 1.2.0 Build 142)  -->
  <g>
    <g id="Layer_2" class="cls-5">
      <rect x="-44.2" y="-37.8" width="2022.4" height="573"/>
    </g>
    <g id="Layer_1">
      <g id="Logos">
        <g id="Hyperledger-Firefly-Guide-Copy">
          <g id="Group-2">
            <g id="Group-2-Copy-2">
              <path id="Combined-Shape" class="cls-1" d="M345.5,187.2l22.2,9.1v121c0,7.7-3.9,14.8-10.4,18.9l-.8.5-53.8,31.2c-6.8,3.9-15.3,3.9-22.2,0h0l-53.8-31.2c-6.8-3.9-11-11.3-11-19.3h0v-120.8l22.2-8.4v129.3l53.8,31.2,53.8-31.2v-130.3ZM280.7,61.6c6.8-3.9,15.3-3.9,22.2,0h0l53.8,31.2c6.8,3.9,11,11.3,11,19.3h0v23.9l-22.2-.5v-23.5l-53.8-31.2-53.8,31.2v21.2l-22.2-.5v-20.8c0-7.7,3.9-14.8,10.4-18.9l.8-.5,53.8-30.9Z"/>
              <path id="Path-3" class="cls-3" d="M235.5,286.8v32.8l56.4,32,56.1-33.1-.9-100.8-54.8,30.7c-.3.1-.6.1-.8,0l-56-30.7v69.1Z"/>
              <path id="Path-2" class="cls-2" d="M351.4,247.4l11,19.3-65,37.7c-3.3,1.9-7.4,2-10.8.2l-.4-.2-65-37.7,11-19.3,59.5,34.6,59.6-34.6Z"/>
              <path id="Path-2-Copy" class="cls-2" d="M351.4,190.2l11,19.3-65,37.7c-3.3,1.9-7.4,2-10.8.2l-.4-.2-65-37.7,11-19.3,59.5,34.6,59.6-34.6Z"/>
              <path id="Path-4" class="cls-1" d="M293.3,120.3H34.7c-10.7,0-15.2,13.6-6.6,20.1l124.3,93.6c3.3,2.4,7.6,2.9,11.2,1.2l128.3-59.4M280.7,142.6v14.4l-120.3,55.2-92.4-69.6h212.7Z"/>
              <path id="Path-4-Copy" class="cls-1" d="M293.3,120.3h257.1c10.7,0,15.2,13.6,6.6,20.1l-124.3,93.6c-3.3,2.4-7.6,2.9-11.2,1.2l-129.6-59.4M304.3,142.6v14.4l120.3,55.2,92.4-69.6h-212.7Z"/>
              <path id="Line-Copy-3" class="cls-1" d="M254.8,50.4c6,0,10.9,4.8,11,10.8v24.5c0,6.1-5,11.1-11,11.1s-10.9-4.8-11-10.8v-24.4c0-6.2,4.9-11.2,11-11.2Z"/>
              <path id="Line-Copy-4" class="cls-1" d="M330.9,50.4c6,0,10.9,4.8,11,10.8v24.5c0,6.1-5,11.1-11,11.1s-10.9-4.8-11-10.8v-24.4c0-6.2,4.9-11.2,11-11.2Z"/>
            </g>
          </g>
        </g>
      </g>
      <g>
        <path class="cls-4" d="M641,450.7v-229.4h140.3v24.9h-112.5v77h103.5v24.9h-103.5v102.6h-27.9Z"/>
        <path class="cls-4" d="M816.9,450.7v-229.4h27.9v229.4h-27.9Z"/>
        <path class="cls-4" d="M894.6,450.7v-229.4h93.9c14.4,0,27.1,2.5,38,7.4,10.9,4.9,19.5,11.9,25.7,20.9,6.1,9,9.3,20,9.3,32.6v3.6c0,15.1-3.6,27-10.9,35.7-7.3,8.7-15.9,14.6-25.9,17.7v4.6c8,.2,14.5,2.8,19.8,7.7,5.2,4.9,7.8,12.3,7.8,22.1v77h-27.6v-73.8c0-6.5-1.8-11.6-5.5-15.1-3.6-3.5-9.1-5.3-16.4-5.3h-80.3v94h-27.9ZM922.5,331.7h63.4c15.3,0,27.1-3.6,35.3-10.9,8.3-7.3,12.5-17.6,12.5-30.6v-2.3c0-13.1-4.1-23.3-12.3-30.6-8.2-7.3-20.1-10.9-35.5-10.9h-63.4v85.5Z"/>
        <path class="cls-4" d="M1100.7,450.7v-229.4h143.1v24.9h-115.2v76.6h105.8v24.9h-105.8v78h116.8v24.9h-144.7Z"/>
        <path class="cls-4" d="M1284.3,450.7v-229.4h140.4v24.9h-112.6v77h103.5v24.9h-103.5v102.6h-27.9Z"/>
        <path class="cls-4" d="M1460.2,450.7v-229.4h27.9v204.5h117.5v24.9h-145.3Z"/>
        <path class="cls-4" d="M1658.1,450.7v-87.5l-82.7-141.9h31.9l62.4,110.1h4.6l62.4-110.1h31.9l-82.7,141.9v87.5h-27.9Z"/>
      </g>
      <g>
        <path class="cls-4" d="M1421.6,130c0-.7,0-1.3.2-2h0c0,0-17.8,0-17.8,0v.5c-.6,4-3.2,6.9-6.9,7.8-1.4.3-3,.5-4.4.5h-51c-1.4,0-3-.2-4.4-.5-3.4-.8-5.6-2.8-6.5-5.8-.4-1.2-.6-2.5-.6-3.8,0-1.9,0-3.9,0-5.9v-4l91.8.2v-21.2c0-2.3-.2-4.3-.5-6.2-.8-5.1-3.1-9.4-7-12.8-5.2-4.6-11.6-6.9-19-7-8.1,0-16.2,0-24.4,0h-32.2c-1.6,0-3.5.2-5.4.5-3.3.6-6.2,1.6-9,3.2-4.1,2.3-7.3,5.4-9.4,9.2-1.9,3.5-2.9,7.2-2.9,11.5v32.6c0,1.2,0,2.6.3,3.9,1,6.9,4.7,12.4,11,16.2,4.7,2.8,10.1,4.2,15.9,4.2h55.3c4.8,0,9.3-1,13.4-2.9,7.9-3.7,12.3-9.7,13.4-18ZM1330.1,92.7c.2-4.4,2.9-7.6,7.3-8.5,1.4-.3,3-.5,4.5-.5h50.5c1.5,0,3.6,0,5.7.8,3.6,1.2,5.6,3.8,5.9,7.5.2,2.1,0,4.3,0,6.4v3.9h-74v-4c0-1.7,0-3.6,0-5.6Z"/>
        <path class="cls-4" d="M1810.7,89.4c-.8-5.1-3.1-9.4-7-12.8-5.2-4.6-11.6-6.9-19-7-8.1,0-16.2,0-24.4,0h-32.2c-1.6,0-3.5.2-5.4.5-3.3.6-6.2,1.6-9,3.2-4.1,2.3-7.3,5.4-9.4,9.2-1.9,3.5-2.9,7.2-2.9,11.5v32.6c0,1.2,0,2.6.3,3.9,1,6.9,4.7,12.4,11,16.2,4.7,2.8,10.1,4.2,15.9,4.2h55.3c4.8,0,9.3-1,13.4-2.9,8-3.8,12.4-9.8,13.4-18.1,0-.7,0-1.3.2-2h0c0,0-17.8,0-17.8,0v.5c-.6,4-3.2,6.9-6.9,7.8-1.4.3-3,.5-4.4.5h-51c-1.4,0-3-.2-4.4-.5-3.4-.8-5.6-2.8-6.5-5.8-.4-1.2-.6-2.5-.6-3.8,0-1.9,0-3.9,0-5.9v-4l91.8.2v-21.2c0-2.2-.2-4.2-.5-6.1ZM1793.3,98.4v3.9h-74v-4c0-1.8,0-3.8,0-5.7.2-4.4,2.9-7.6,7.3-8.5,1.4-.3,3-.5,4.5-.5h50.5c1.5,0,3.6,0,5.7.8,3.6,1.2,5.6,3.8,5.9,7.5,0,2.3,0,4.4,0,6.5Z"/>
        <path class="cls-4" d="M1149.6,89.4c-.8-5.1-3.1-9.4-7-12.8-5.2-4.6-11.6-6.9-19-7-8.1,0-16.2,0-24.4,0h-32.1c-1.6,0-3.5.2-5.4.5-3.3.6-6.2,1.6-9,3.2-4.1,2.3-7.3,5.4-9.4,9.2-1.9,3.5-2.9,7.2-2.9,11.5v32.7c0,1.2,0,2.6.3,3.9,1,6.9,4.7,12.4,11,16.2,4.7,2.8,10.1,4.2,15.9,4.2h55.3c4.8,0,9.3-1,13.4-2.9,8-3.8,12.4-9.8,13.4-18.1,0-.7,0-1.3.2-2h0c0,0-17.8,0-17.8,0v.5c-.6,4-3.2,6.9-6.9,7.8-1.4.3-3,.5-4.4.5h-51c-1.4,0-3-.2-4.4-.5-3.4-.8-5.6-2.8-6.5-5.8-.4-1.2-.6-2.5-.6-3.8,0-1.9,0-3.9,0-5.9v-1.8c0-.3,0-.5,0-.8l.2-1.2h91.5v-21.2c0-2.3-.3-4.3-.6-6.2ZM1132.2,98.5v2.7c0,.3,0,.5-.2.6l-.2.6h-.7c0,0-72.7,0-72.7,0v-1.1c0-.2-.2-.4-.2-.6v-2.4c0-1.8,0-3.8,0-5.7.2-4.4,2.9-7.6,7.3-8.5,1.4-.3,3-.5,4.5-.5h50.5c1.5,0,3.6,0,5.7.8,3.6,1.2,5.6,3.8,5.9,7.5,0,2.3,0,4.4,0,6.5Z"/>
        <path class="cls-4" d="M658.4,91V28.1h-18v122.7h5.7c2.9,0,6.2,0,12.2,0v-13.8c0-12.3,0-9.5,0-21.8v-24.1h0Z"/>
        <path class="cls-4" d="M1911.4,82.3c-2.1-4-5.2-7.1-9.1-9.3-3.9-2.2-8.5-3.3-13.8-3.4-7.2,0-13.7,0-19.9,0-4.1,0-8.3,1-11.8,2.5-2.4,1.1-4.5,2.7-6.4,4.5h0c0,0,0-6.8,0-6.8h-18s.4,81.4,0,81.2h17.8l.3-55c0-1.6,0-3.1.3-4.3.4-3.2,2.1-5.5,5.1-6.7,2.1-.9,4.2-1.1,6.1-1.1h23.2c1.2,0,2.5.2,3.7.4,4.5.7,7.4,3.9,7.7,8.7h17.9c-.4-4.3-1.3-7.8-3-10.7Z"/>
        <path class="cls-4" d="M1251.4,82.3c-2.1-4-5.2-7.1-9.1-9.3-3.9-2.2-8.5-3.3-13.8-3.4-7.2,0-13.7,0-19.9,0-4.1,0-8.3,1-11.8,2.5-2.4,1.1-4.5,2.7-6.4,4.5h0c0,0,0-6.8,0-6.8h-18s.4,81.4,0,81.2h17.8l.3-55c0-1.6,0-3.1.3-4.3.4-3.2,2.1-5.5,5.1-6.7,2.1-.9,4.2-1.1,6.1-1.1h23.2c1.2,0,2.5.2,3.7.4,4.5.7,7.4,3.9,7.7,8.7h17.9c-.4-4.3-1.3-7.8-3-10.7Z"/>
        <path class="cls-4" d="M992.6,150.9c1,0,1.9,0,2.9-.2h.2c5.1-.6,9.8-2.4,13.7-5.2,3.5-2.5,6-5.5,7.6-9.2,1.2-3,1.9-6.1,1.9-9.8v-32.8c0-1.7,0-3.9-.6-6.1-1.3-5.4-4.3-9.7-8.8-12.9-5.1-3.6-11-5.5-17.7-5.5h-42.8c-1.7,0-3.5.2-5.2.5-3.9.7-7.7,2.1-11.1,4.4-.2.2-1.4,1-2.4,1.6h0v-6.1h-17.9v103.2h17.9v-78.2c0-1,0-1.9,0-3,.5-3.6,2.4-6.1,5.7-7.2,1.5-.6,3.2-.9,4.7-.9,6.2,0,12.4,0,18.6,0h31.3c1.4,0,3.1.3,4.7.9,3.5,1.2,5.7,4.3,5.7,8.2v34.9c0,4.5-2.7,7.8-7,8.7-1.4.3-2.9.5-4.4.5h-41.7l-13.4,14.2h58Z"/>
        <path class="cls-4" d="M1551.8,150.6V30.8h-17.9v94.9c0,1,0,1.9,0,3-.5,3.6-2.4,6.1-5.7,7.2-1.5.6-3.2.9-4.7.9h-49.8c-1.4,0-3.1-.3-4.7-.9-3.5-1.2-5.7-4.3-5.7-8.2v-34.9c0-4.5,2.7-7.8,7-8.7,1.4-.3,2.9-.5,4.4-.5h41.6l13.4-14.2h-58.2c-1,0-1.9,0-2.9.2h-.2c-5.2.6-9.8,2.4-13.7,5.2-3.5,2.5-6,5.6-7.6,9.2-1.2,3-1.9,6.1-1.9,9.8v32.8c0,1.7,0,3.9.6,6.1,1.3,5.4,4.3,9.7,8.8,12.9,5.1,3.6,11,5.5,17.7,5.5h42.8c1.7,0,3.5-.2,5.2-.5,3.9-.7,7.7-2.1,11.1-4.4.2-.2,1.2-.8,2.4-1.4h0v6h18.1Z"/>
        <polygon class="cls-4" points="1272.1 29.1 1272.1 150.9 1290 150.9 1290 29.1 1272.1 29.1"/>
        <path class="cls-4" d="M743.7,29.1v55.5h-73.6l-11.7,14.2h85.3v52.2h18V29h-18Z"/>
        <path class="cls-4" d="M1681.3,69.9v-.6h-17.8v6.3c0,0-7.3-6.5-19.4-6.5h-42c-2.1,0-3.8,0-5.4.4-4.2.7-8,2.1-11.2,4.1-4.7,3-7.9,6.9-9.5,11.6-.9,2.5-1.3,5.3-1.3,8.5v32.3c0,1.9,0,3.6.4,5.2.8,4.2,2.5,8,5.4,10.9,5.3,5.7,12,8.5,19.9,8.6,13.2.2,28.5,0,43.4,0h1.7l13.4-14.2h-55c-1.4,0-3-.2-4.7-.7-3.7-1.1-6.1-3.9-6.4-8.1v-34c0-1.4,0-3,.7-4.4,1-2.6,2.8-4.3,5.3-5.1,1.6-.6,3.3-.8,4.7-.9,6.2,0,12.4,0,18.6,0h31.3c1.4,0,3,.3,4.5.9,2.7.9,4.5,2.9,5.3,5.7.3,1.2.5,2.3.5,3.4v66h0v3.2c0,.8-.2,1.7-.6,2.6-1,2.1-2.6,3.6-5,4.5-1.6.6-3.5,1-5.4.9h-49.5l-11.7,14.2c12.9,0,35.4,0,52.1,0h11.7c1.2,0,2.5,0,3.6-.3,4-.5,8-1.7,11.5-3.9,4.3-2.7,7.4-6.1,9.2-10.4,1.2-2.9,1.8-6.1,1.8-10v-61.3l-.2-29Z"/>
        <path class="cls-4" d="M889.7,70v-.4h-17.9v56.4c0,1.2,0,2.5-.4,3.7-.6,2.7-2.2,4.7-4.7,5.9-1.8.9-3.8,1.2-6.4,1.2h-47.7c-1.5,0-3-.2-4.4-.5-3.4-.8-5.7-2.8-6.7-5.9-.5-1.4-.5-2.9-.5-4.2v-56.5h-17.8v56.2c0,1.6,0,3.3.3,5,.6,4.2,2.3,8.1,5.2,11.2,5.3,5.8,12,8.7,20.1,8.8h46.6c5.5,0,10.4-1.2,14.3-3.8.2-.2,1.3-.9,2.3-2h0v17.1c0,2.7-1.3,4.9-3.7,6.5-1.9,1.2-4.2,1.8-7,1.8h-49.8l-11.8,14h63.7c1.1,0,2.3,0,3.7-.3,4.9-.6,9.4-2.3,13.4-5.2,6.1-4.5,9.2-10.5,9.3-17.7,0-22.6,0-45.5,0-67.7v-23.8Z"/>
      </g>
    </g>
  </g>
</svg>